<svg version="1.1" id="Layer_1" xmlns="http://www.w3.org/2000/svg" xmlns:xlink="http://www.w3.org/1999/xlink" x="0px" y="0px"
	 width="100%" viewBox="0 0 1024 1024" enable-background="new 0 0 1024 1024" xml:space="preserve">
<path fill="#000000" opacity="1.000000" stroke="none" 
	d="
M754.552490,663.775146 
	C744.340271,667.470093 734.182068,668.523682 723.738953,668.488770 
	C699.088074,668.406433 674.431152,669.094727 649.785156,668.790527 
	C593.962341,668.101746 538.140930,668.559265 482.319183,668.456604 
	C477.571259,668.447876 476.847198,667.253540 479.453918,663.210083 
	C490.015472,646.827209 500.732147,630.544250 511.253265,614.135620 
	C513.250916,611.020142 516.034119,610.968872 519.074707,610.969299 
	C558.736877,610.974243 598.399048,610.969849 638.061218,610.971191 
	C666.724609,610.972229 695.388123,611.015930 724.051453,610.966064 
	C738.265442,610.941345 748.090393,602.923584 751.926147,588.450317 
	C754.978638,576.932678 749.265930,564.364075 738.144043,557.946167 
	C730.747131,553.677734 722.561218,554.720276 714.678345,554.741211 
	C671.523010,554.856445 628.367371,555.302795 585.216064,554.432373 
	C573.741638,554.200867 562.232666,555.322021 550.791626,553.496277 
	C516.445374,548.015137 490.722473,522.015320 484.874268,486.790619 
	C478.810760,450.269104 497.330475,413.532440 530.141785,397.289001 
	C541.030090,391.898712 552.588318,388.908966 564.810059,388.904877 
	C642.134521,388.878967 719.458923,388.865021 796.783386,388.883057 
	C798.868164,388.883545 801.536926,388.106445 802.758301,390.335419 
	C804.012268,392.623901 801.687195,394.338165 800.587830,396.050476 
	C791.047607,410.909668 781.335754,425.658936 771.836731,440.544098 
	C769.803711,443.729797 767.309631,444.986725 763.604370,444.982697 
	C700.611694,444.914154 637.618469,445.043823 574.626892,444.772003 
	C565.756104,444.733734 557.742920,445.720154 550.971008,451.830963 
	C542.398010,459.567017 539.576843,471.562012 543.762817,482.473145 
	C547.735229,492.827637 557.586975,499.671875 568.982483,499.682190 
	C622.809631,499.730896 676.636780,499.678070 730.463867,499.727448 
	C774.664856,499.768005 809.989014,534.743225 810.066223,579.015747 
	C810.124695,612.545349 797.084473,639.414368 768.043579,657.536804 
	C763.925049,660.106995 759.428650,661.890015 754.552490,663.775146 
z"/>
<path fill="#000000" opacity="1.000000" stroke="none" 
	d="
M380.629639,377.011261 
	C380.633148,373.347412 380.672302,370.180328 380.626984,367.014435 
	C380.535583,360.625336 380.065247,360.134186 373.814728,360.123077 
	C359.981842,360.098450 346.148895,360.107117 332.315979,360.111572 
	C301.150146,360.121613 269.984314,360.138123 238.818466,360.148621 
	C236.985321,360.149231 235.145309,360.215790 233.320435,360.085022 
	C229.170105,359.787537 228.482468,358.508759 230.860962,355.207855 
	C239.530106,343.176819 248.270020,331.196747 256.996765,319.207306 
	C258.957336,316.513794 261.332886,314.052399 262.884033,311.146149 
	C265.704468,305.861664 269.877747,304.540985 275.630798,304.547668 
	C380.461121,304.669312 485.291595,304.610046 590.122070,304.650421 
	C592.127136,304.651184 594.827271,303.552338 595.999512,306.025360 
	C597.018555,308.175079 594.812866,309.619629 593.718567,311.200714 
	C583.573242,325.859894 573.275879,340.416168 563.317871,355.201172 
	C560.875000,358.828186 558.159546,360.250824 553.873840,360.234863 
	C519.208557,360.105591 484.542664,360.150391 449.876953,360.125122 
	C440.217896,360.118073 440.226471,360.092102 440.227478,369.512054 
	C440.237946,466.509552 440.246185,563.507019 440.252075,660.504517 
	C440.252533,668.393433 440.242126,668.384033 432.302826,668.378845 
	C416.969879,668.368774 401.635559,668.255798 386.304962,668.443542 
	C382.190338,668.493958 380.527985,667.689697 380.534943,662.999878 
	C380.675903,567.836304 380.633118,472.672394 380.629639,377.011261 
z"/>
</svg>
